<?xml version="1.0" encoding="UTF-8" standalone="no"?><svg xmlns="http://www.w3.org/2000/svg" xmlns:xlink="http://www.w3.org/1999/xlink" contentStyleType="text/css" height="626px" preserveAspectRatio="none" style="width:567px;height:626px;background:#FFFFFF;" version="1.1" viewBox="0 0 567 626" width="567px" zoomAndPan="magnify"><defs/><g><!--class NodeOptions--><g id="elem_NodeOptions"><rect codeLine="3" fill="#F1F1F1" height="48" id="NodeOptions" rx="2.5" ry="2.5" style="stroke:#181818;stroke-width:0.5;" width="122" x="251" y="115"/><ellipse cx="266" cy="131" fill="#ADD1B2" rx="11" ry="11" style="stroke:#181818;stroke-width:1.0;"/><path d="M268.4731,137.1431 Q267.8921,137.4419 267.2529,137.5913 Q266.6138,137.7407 265.9082,137.7407 Q263.4014,137.7407 262.0815,136.0889 Q260.7617,134.437 260.7617,131.3159 Q260.7617,128.1865 262.0815,126.5347 Q263.4014,124.8828 265.9082,124.8828 Q266.6138,124.8828 267.2612,125.0322 Q267.9087,125.1816 268.4731,125.4805 L268.4731,128.2031 Q267.8423,127.6221 267.2488,127.3523 Q266.6553,127.0825 266.0244,127.0825 Q264.6797,127.0825 263.9949,128.1492 Q263.3101,129.2158 263.3101,131.3159 Q263.3101,133.4077 263.9949,134.4744 Q264.6797,135.541 266.0244,135.541 Q266.6553,135.541 267.2488,135.2712 Q267.8423,135.0015 268.4731,134.4204 Z " fill="#000000"/><text fill="#000000" font-family="sans-serif" font-size="14" lengthAdjust="spacing" textLength="90" x="280" y="136.291">NodeOptions</text><line style="stroke:#181818;stroke-width:0.5;" x1="252" x2="372" y1="147" y2="147"/><line style="stroke:#181818;stroke-width:0.5;" x1="252" x2="372" y1="155" y2="155"/></g><!--class RaftGroupService--><g id="elem_RaftGroupService"><rect codeLine="4" fill="#F1F1F1" height="48" id="RaftGroupService" rx="2.5" ry="2.5" style="stroke:#181818;stroke-width:0.5;" width="150" x="237" y="7"/><ellipse cx="252" cy="23" fill="#ADD1B2" rx="11" ry="11" style="stroke:#181818;stroke-width:1.0;"/><path d="M254.4731,29.1431 Q253.8921,29.4419 253.2529,29.5913 Q252.6138,29.7407 251.9082,29.7407 Q249.4014,29.7407 248.0815,28.0889 Q246.7617,26.437 246.7617,23.3159 Q246.7617,20.1865 248.0815,18.5347 Q249.4014,16.8828 251.9082,16.8828 Q252.6138,16.8828 253.2612,17.0322 Q253.9087,17.1816 254.4731,17.4805 L254.4731,20.2031 Q253.8423,19.6221 253.2488,19.3523 Q252.6553,19.0825 252.0244,19.0825 Q250.6797,19.0825 249.9949,20.1492 Q249.3101,21.2158 249.3101,23.3159 Q249.3101,25.4077 249.9949,26.4744 Q250.6797,27.541 252.0244,27.541 Q252.6553,27.541 253.2488,27.2712 Q253.8423,27.0015 254.4731,26.4204 Z " fill="#000000"/><text fill="#000000" font-family="sans-serif" font-size="14" lengthAdjust="spacing" textLength="118" x="266" y="28.291">RaftGroupService</text><line style="stroke:#181818;stroke-width:0.5;" x1="238" x2="386" y1="39" y2="39"/><line style="stroke:#181818;stroke-width:0.5;" x1="238" x2="386" y1="47" y2="47"/></g><!--class PartitionListener--><g id="elem_PartitionListener"><rect codeLine="5" fill="#F1F1F1" height="146.9297" id="PartitionListener" rx="2.5" ry="2.5" style="stroke:#181818;stroke-width:0.5;" width="497" x="63.5" y="223"/><ellipse cx="251.75" cy="239" fill="#ADD1B2" rx="11" ry="11" style="stroke:#181818;stroke-width:1.0;"/><path d="M254.2231,245.1431 Q253.6421,245.4419 253.0029,245.5913 Q252.3638,245.7407 251.6582,245.7407 Q249.1514,245.7407 247.8315,244.0889 Q246.5117,242.437 246.5117,239.3159 Q246.5117,236.1865 247.8315,234.5347 Q249.1514,232.8828 251.6582,232.8828 Q252.3638,232.8828 253.0112,233.0322 Q253.6587,233.1816 254.2231,233.4805 L254.2231,236.2031 Q253.5923,235.6221 252.9988,235.3523 Q252.4053,235.0825 251.7744,235.0825 Q250.4297,235.0825 249.7449,236.1492 Q249.0601,237.2158 249.0601,239.3159 Q249.0601,241.4077 249.7449,242.4744 Q250.4297,243.541 251.7744,243.541 Q252.4053,243.541 252.9988,243.2712 Q253.5923,243.0015 254.2231,242.4204 Z " fill="#000000"/><text fill="#000000" font-family="sans-serif" font-size="14" lengthAdjust="spacing" textLength="112" x="272.25" y="244.291">PartitionListener</text><line style="stroke:#181818;stroke-width:0.5;" x1="64.5" x2="559.5" y1="255" y2="255"/><text fill="#000000" font-family="sans-serif" font-size="14" lengthAdjust="spacing" textLength="289" x="69.5" y="272.5352">PartitionDataStorage partitionDataStorage</text><text fill="#000000" font-family="sans-serif" font-size="14" lengthAdjust="spacing" textLength="210" x="69.5" y="289.0234">TxStateStorage txStateStorage</text><text fill="#000000" font-family="sans-serif" font-size="14" lengthAdjust="spacing" textLength="4" x="69.5" y="305.5117"> </text><text fill="#000000" font-family="sans-serif" font-size="14" lengthAdjust="spacing" textLength="315" x="69.5" y="322">StorageUpdateHandler storageUpdateHandler</text><text fill="#000000" font-family="sans-serif" font-size="14" lengthAdjust="spacing" textLength="485" x="69.5" y="338.4883">PendingComparableValuesTracker&lt;HybridTimestamp, Void&gt; safeTime</text><text fill="#000000" font-family="sans-serif" font-size="14" lengthAdjust="spacing" textLength="479" x="69.5" y="354.9766">PendingComparableValuesTracker&lt;Long, Void&gt; storageIndexTracker</text><line style="stroke:#181818;stroke-width:0.5;" x1="64.5" x2="559.5" y1="361.9297" y2="361.9297"/></g><!--class SnapshotAwarePartitionDataStorage--><g id="elem_SnapshotAwarePartitionDataStorage"><rect codeLine="13" fill="#F1F1F1" height="80.9766" id="SnapshotAwarePartitionDataStorage" rx="2.5" ry="2.5" style="stroke:#181818;stroke-width:0.5;" width="289" x="43.5" y="430"/><ellipse cx="62.1" cy="446" fill="#ADD1B2" rx="11" ry="11" style="stroke:#181818;stroke-width:1.0;"/><path d="M64.5731,452.1431 Q63.9921,452.4419 63.3529,452.5913 Q62.7138,452.7407 62.0082,452.7407 Q59.5014,452.7407 58.1815,451.0889 Q56.8617,449.437 56.8617,446.3159 Q56.8617,443.1865 58.1815,441.5347 Q59.5014,439.8828 62.0082,439.8828 Q62.7138,439.8828 63.3612,440.0322 Q64.0087,440.1816 64.5731,440.4805 L64.5731,443.2031 Q63.9423,442.6221 63.3488,442.3523 Q62.7553,442.0825 62.1244,442.0825 Q60.7797,442.0825 60.0949,443.1492 Q59.4101,444.2158 59.4101,446.3159 Q59.4101,448.4077 60.0949,449.4744 Q60.7797,450.541 62.1244,450.541 Q62.7553,450.541 63.3488,450.2712 Q63.9423,450.0015 64.5731,449.4204 Z " fill="#000000"/><text fill="#000000" font-family="sans-serif" font-size="14" lengthAdjust="spacing" textLength="249" x="76.9" y="451.291">SnapshotAwarePartitionDataStorage</text><line style="stroke:#181818;stroke-width:0.5;" x1="44.5" x2="331.5" y1="462" y2="462"/><text fill="#000000" font-family="sans-serif" font-size="14" lengthAdjust="spacing" textLength="246" x="49.5" y="479.5352">MvPartitionStorage partitionStorage</text><text fill="#000000" font-family="sans-serif" font-size="14" lengthAdjust="spacing" textLength="277" x="49.5" y="496.0234">PartitionsSnapshots partitionsSnapshots</text><line style="stroke:#181818;stroke-width:0.5;" x1="44.5" x2="331.5" y1="502.9766" y2="502.9766"/></g><!--class MvPartitionStorage--><g id="elem_MvPartitionStorage"><rect codeLine="17" fill="#F1F1F1" height="48" id="MvPartitionStorage" rx="2.5" ry="2.5" style="stroke:#181818;stroke-width:0.5;" width="162" x="7" y="571"/><ellipse cx="22" cy="587" fill="#B4A7E5" rx="11" ry="11" style="stroke:#181818;stroke-width:1.0;"/><path d="M18.4277,583.2651 L18.4277,581.1069 L25.8071,581.1069 L25.8071,583.2651 L23.3418,583.2651 L23.3418,591.3418 L25.8071,591.3418 L25.8071,593.5 L18.4277,593.5 L18.4277,591.3418 L20.8931,591.3418 L20.8931,583.2651 Z " fill="#000000"/><text fill="#000000" font-family="sans-serif" font-size="14" font-style="italic" lengthAdjust="spacing" textLength="130" x="36" y="592.291">MvPartitionStorage</text><line style="stroke:#181818;stroke-width:0.5;" x1="8" x2="168" y1="603" y2="603"/><line style="stroke:#181818;stroke-width:0.5;" x1="8" x2="168" y1="611" y2="611"/></g><!--class PartitionsSnapshots--><g id="elem_PartitionsSnapshots"><rect codeLine="18" fill="#F1F1F1" height="48" id="PartitionsSnapshots" rx="2.5" ry="2.5" style="stroke:#181818;stroke-width:0.5;" width="168" x="204" y="571"/><ellipse cx="219" cy="587" fill="#B4A7E5" rx="11" ry="11" style="stroke:#181818;stroke-width:1.0;"/><path d="M215.4277,583.2651 L215.4277,581.1069 L222.8071,581.1069 L222.8071,583.2651 L220.3418,583.2651 L220.3418,591.3418 L222.8071,591.3418 L222.8071,593.5 L215.4277,593.5 L215.4277,591.3418 L217.8931,591.3418 L217.8931,583.2651 Z " fill="#000000"/><text fill="#000000" font-family="sans-serif" font-size="14" font-style="italic" lengthAdjust="spacing" textLength="136" x="233" y="592.291">PartitionsSnapshots</text><line style="stroke:#181818;stroke-width:0.5;" x1="205" x2="371" y1="603" y2="603"/><line style="stroke:#181818;stroke-width:0.5;" x1="205" x2="371" y1="611" y2="611"/></g><!--class TxStateStorage--><g id="elem_TxStateStorage"><rect codeLine="19" fill="#F1F1F1" height="48" id="TxStateStorage" rx="2.5" ry="2.5" style="stroke:#181818;stroke-width:0.5;" width="137" x="367.5" y="446.5"/><ellipse cx="382.5" cy="462.5" fill="#B4A7E5" rx="11" ry="11" style="stroke:#181818;stroke-width:1.0;"/><path d="M378.9277,458.7651 L378.9277,456.6069 L386.3071,456.6069 L386.3071,458.7651 L383.8418,458.7651 L383.8418,466.8418 L386.3071,466.8418 L386.3071,469 L378.9277,469 L378.9277,466.8418 L381.3931,466.8418 L381.3931,458.7651 Z " fill="#000000"/><text fill="#000000" font-family="sans-serif" font-size="14" font-style="italic" lengthAdjust="spacing" textLength="105" x="396.5" y="467.791">TxStateStorage</text><line style="stroke:#181818;stroke-width:0.5;" x1="368.5" x2="503.5" y1="478.5" y2="478.5"/><line style="stroke:#181818;stroke-width:0.5;" x1="368.5" x2="503.5" y1="486.5" y2="486.5"/></g><!--reverse link RaftGroupService to NodeOptions--><g id="link_RaftGroupService_NodeOptions"><path codeLine="21" d="M312,69.54 C312,84.63 312,101.55 312,114.79 " fill="none" id="RaftGroupService-backto-NodeOptions" style="stroke:#181818;stroke-width:1.0;"/><polygon fill="none" points="312,56.78,308,62.78,312,68.78,316,62.78,312,56.78" style="stroke:#181818;stroke-width:1.0;"/></g><!--reverse link NodeOptions to PartitionListener--><g id="link_NodeOptions_PartitionListener"><path codeLine="22" d="M312,177.59 C312,191.23 312,207.16 312,222.8 " fill="none" id="NodeOptions-backto-PartitionListener" style="stroke:#181818;stroke-width:1.0;"/><polygon fill="none" points="312,164.79,308,170.79,312,176.79,316,170.79,312,164.79" style="stroke:#181818;stroke-width:1.0;"/></g><!--reverse link PartitionListener to SnapshotAwarePartitionDataStorage--><g id="link_PartitionListener_SnapshotAwarePartitionDataStorage"><path codeLine="23" d="M251.12,381.95 C239.09,398.64 227,415.4 216.67,429.73 " fill="none" id="PartitionListener-backto-SnapshotAwarePartitionDataStorage" style="stroke:#181818;stroke-width:1.0;"/><polygon fill="none" points="258.53,371.67,251.7782,374.2025,251.519,381.4089,258.2708,378.8764,258.53,371.67" style="stroke:#181818;stroke-width:1.0;"/></g><!--reverse link PartitionListener to TxStateStorage--><g id="link_PartitionListener_TxStateStorage"><path codeLine="24" d="M372.94,382.03 C390.02,405.72 407.2,429.56 419.31,446.35 " fill="none" id="PartitionListener-backto-TxStateStorage" style="stroke:#181818;stroke-width:1.0;"/><polygon fill="none" points="365.47,371.67,365.7292,378.8764,372.481,381.4089,372.2218,374.2025,365.47,371.67" style="stroke:#181818;stroke-width:1.0;"/></g><!--reverse link SnapshotAwarePartitionDataStorage to MvPartitionStorage--><g id="link_SnapshotAwarePartitionDataStorage_MvPartitionStorage"><path codeLine="26" d="M146.64,522.16 C132.84,539.07 118.14,557.08 106.9,570.84 " fill="none" id="SnapshotAwarePartitionDataStorage-backto-MvPartitionStorage" style="stroke:#181818;stroke-width:1.0;"/><polygon fill="none" points="154.58,512.44,147.688,514.5615,146.9955,521.7392,153.8875,519.6178,154.58,512.44" style="stroke:#181818;stroke-width:1.0;"/><text fill="#000000" font-family="sans-serif" font-size="13" lengthAdjust="spacing" textLength="23" x="85.7963" y="560.3353">one</text></g><!--reverse link SnapshotAwarePartitionDataStorage to PartitionsSnapshots--><g id="link_SnapshotAwarePartitionDataStorage_PartitionsSnapshots"><path codeLine="27" d="M229.36,522.16 C243.16,539.07 257.86,557.08 269.1,570.84 " fill="none" id="SnapshotAwarePartitionDataStorage-backto-PartitionsSnapshots" style="stroke:#181818;stroke-width:1.0;"/><polygon fill="none" points="221.42,512.44,222.1125,519.6178,229.0045,521.7392,228.312,514.5615,221.42,512.44" style="stroke:#181818;stroke-width:1.0;"/></g><!--SRC=[ZPBBJiCm44Nt-Ggh6pQ4x152GY1HfF8G2TrFuqbg4JzaJqeHujznIfgaYL7OsVVUcR6EvsnBPDnbafWA5DMokiYrJF8Ad8kvWDA2ZAB3bJrfZi-6X5QkLLwXe7khQvEYtOaSM_a5B8acjnAEKA5bNn7hrJiWI4bRA96PWEYpsJub83ocwEGQ-K1xV3FSwqjGlF9JN41i1gFYGfMtMlffiAbm3LMDBhEGlwEzMdvkhE2PaEW8f3bdQotuDNDGO2FEDrXfLNPLlqzuK1pthHzzjrXI1SPjDTryWCKWZGRJuwwp9f1wG5t67RkwFjPhVhPGXBQ070ET1sQWuS3DHXym_dYcu_XaFmRdWpTPYMYw94rkbj4VTUC7phDkgXPQuIB4vN_b0MO_]--></g></svg>